TITLE ""
FILE "P1Q_t_1349-1358.mp3" MP3
  TRACK 01 AUDIO
    TITLE "P1Q_t_1349-1358_01"
    INDEX 01 00:00:00
  TRACK 02 AUDIO
    TITLE "P1Q_t_1349-1358_02"
    INDEX 01 00:01:10
  TRACK 03 AUDIO
    TITLE "P1Q_t_1349-1358_03"
    INDEX 01 00:01:31
  TRACK 04 AUDIO
    TITLE "P1Q_t_1349-1358_04"
    INDEX 01 00:02:48
  TRACK 05 AUDIO
    TITLE "P1Q_t_1349-1358_05"
    INDEX 01 00:02:70
  TRACK 06 AUDIO
    TITLE "P1Q_t_1349-1358_06"
    INDEX 01 00:06:68
  TRACK 07 AUDIO
    TITLE "P1Q_t_1349-1358_07"
    INDEX 01 00:07:38
  TRACK 08 AUDIO
    TITLE "P1Q_t_1349-1358_08"
    INDEX 01 00:08:67
  TRACK 09 AUDIO
    TITLE "P1Q_t_1349-1358_09"
    INDEX 01 00:09:11
  TRACK 10 AUDIO
    TITLE "P1Q_t_1349-1358_10"
    INDEX 01 00:11:14
  TRACK 11 AUDIO
    TITLE "P1Q_t_1349-1358_11"
    INDEX 01 00:11:34
  TRACK 12 AUDIO
    TITLE "P1Q_t_1349-1358_12"
    INDEX 01 00:17:28
  TRACK 13 AUDIO
    TITLE "P1Q_t_1349-1358_13"
    INDEX 01 00:18:04
  TRACK 14 AUDIO
    TITLE "P1Q_t_1349-1358_14"
    INDEX 01 00:19:12
  TRACK 15 AUDIO
    TITLE "P1Q_t_1349-1358_15"
    INDEX 01 00:19:31
  TRACK 16 AUDIO
    TITLE "P1Q_t_1349-1358_16"
    INDEX 01 00:23:21
  TRACK 17 AUDIO
    TITLE "P1Q_t_1349-1358_17"
    INDEX 01 00:23:41
  TRACK 18 AUDIO
    TITLE "P1Q_t_1349-1358_18"
    INDEX 01 00:29:02
  TRACK 19 AUDIO
    TITLE "P1Q_t_1349-1358_19"
    INDEX 01 00:29:47
  TRACK 20 AUDIO
    TITLE "P1Q_t_1349-1358_20"
    INDEX 01 00:30:51
  TRACK 21 AUDIO
    TITLE "P1Q_t_1349-1358_21"
    INDEX 01 00:31:01
  TRACK 22 AUDIO
    TITLE "P1Q_t_1349-1358_22"
    INDEX 01 00:34:01
  TRACK 23 AUDIO
    TITLE "P1Q_t_1349-1358_23"
    INDEX 01 00:34:21
  TRACK 24 AUDIO
    TITLE "P1Q_t_1349-1358_24"
    INDEX 01 00:38:54
  TRACK 25 AUDIO
    TITLE "P1Q_t_1349-1358_25"
    INDEX 01 00:39:26
  TRACK 26 AUDIO
    TITLE "P1Q_t_1349-1358_26"
    INDEX 01 00:40:47
  TRACK 27 AUDIO
    TITLE "P1Q_t_1349-1358_27"
    INDEX 01 00:40:73
  TRACK 28 AUDIO
    TITLE "P1Q_t_1349-1358_28"
    INDEX 01 00:46:54
  TRACK 29 AUDIO
    TITLE "P1Q_t_1349-1358_29"
    INDEX 01 00:46:73
  TRACK 30 AUDIO
    TITLE "P1Q_t_1349-1358_30"
    INDEX 01 00:51:57
  TRACK 31 AUDIO
    TITLE "P1Q_t_1349-1358_31"
    INDEX 01 00:52:29
  TRACK 32 AUDIO
    TITLE "P1Q_t_1349-1358_32"
    INDEX 01 00:53:44
  TRACK 33 AUDIO
    TITLE "P1Q_t_1349-1358_33"
    INDEX 01 00:53:63
  TRACK 34 AUDIO
    TITLE "P1Q_t_1349-1358_34"
    INDEX 01 00:56:15
  TRACK 35 AUDIO
    TITLE "P1Q_t_1349-1358_35"
    INDEX 01 00:56:34
  TRACK 36 AUDIO
    TITLE "P1Q_t_1349-1358_36"
    INDEX 01 01:00:46
  TRACK 37 AUDIO
    TITLE "P1Q_t_1349-1358_37"
    INDEX 01 01:01:18
  TRACK 38 AUDIO
    TITLE "P1Q_t_1349-1358_38"
    INDEX 01 01:02:29
  TRACK 39 AUDIO
    TITLE "P1Q_t_1349-1358_39"
    INDEX 01 01:02:49
  TRACK 40 AUDIO
    TITLE "P1Q_t_1349-1358_40"
    INDEX 01 01:05:37
  TRACK 41 AUDIO
    TITLE "P1Q_t_1349-1358_41"
    INDEX 01 01:05:57
  TRACK 42 AUDIO
    TITLE "P1Q_t_1349-1358_42"
    INDEX 01 01:10:31
  TRACK 43 AUDIO
    TITLE "P1Q_t_1349-1358_43"
    INDEX 01 01:10:74
  TRACK 44 AUDIO
    TITLE "P1Q_t_1349-1358_44"
    INDEX 01 01:12:04
  TRACK 45 AUDIO
    TITLE "P1Q_t_1349-1358_45"
    INDEX 01 01:12:25
  TRACK 46 AUDIO
    TITLE "P1Q_t_1349-1358_46"
    INDEX 01 01:16:29
  TRACK 47 AUDIO
    TITLE "P1Q_t_1349-1358_47"
    INDEX 01 01:16:49
  TRACK 48 AUDIO
    TITLE "P1Q_t_1349-1358_48"
    INDEX 01 01:21:36
  TRACK 49 AUDIO
    TITLE "P1Q_t_1349-1358_49"
    INDEX 01 01:22:06
  TRACK 50 AUDIO
    TITLE "P1Q_t_1349-1358_50"
    INDEX 01 01:23:35
  TRACK 51 AUDIO
    TITLE "P1Q_t_1349-1358_51"
    INDEX 01 01:23:57
  TRACK 52 AUDIO
    TITLE "P1Q_t_1349-1358_52"
    INDEX 01 01:25:30
  TRACK 53 AUDIO
    TITLE "P1Q_t_1349-1358_53"
    INDEX 01 01:25:50
  TRACK 54 AUDIO
    TITLE "P1Q_t_1349-1358_54"
    INDEX 01 01:30:66
  TRACK 55 AUDIO
    TITLE "P1Q_t_1349-1358_55"
    INDEX 01 01:31:37
  TRACK 56 AUDIO
    TITLE "P1Q_t_1349-1358_56"
    INDEX 01 01:32:40
  TRACK 57 AUDIO
    TITLE "P1Q_t_1349-1358_57"
    INDEX 01 01:32:61
  TRACK 58 AUDIO
    TITLE "P1Q_t_1349-1358_58"
    INDEX 01 01:34:60
  TRACK 59 AUDIO
    TITLE "P1Q_t_1349-1358_59"
    INDEX 01 01:35:05
  TRACK 60 AUDIO
    TITLE "P1Q_t_1349-1358_60"
    INDEX 01 01:38:48
